<?xml version="1.0" encoding="iso-8859-1"?>
<!-- Generator: Adobe Illustrator 19.0.0, SVG Export Plug-In . SVG Version: 6.00 Build 0)  -->
<svg version="1.1" id="Capa_1" xmlns="http://www.w3.org/2000/svg" xmlns:xlink="http://www.w3.org/1999/xlink" x="0px" y="0px"
	 viewBox="0 0 512 512" style="enable-background:new 0 0 512 512;" xml:space="preserve">
<g>
	<g>
		<g>
			<path d="M318.125,211.082c4.143,0,7.5-3.358,7.5-7.5c0-10.516,4.095-20.403,11.53-27.838l1.667-1.667
				c10.269-10.269,15.924-23.922,15.924-38.445v-19.414c0-4.142-3.357-7.5-7.5-7.5s-7.5,3.358-7.5,7.5v19.414
				c0,10.516-4.095,20.403-11.53,27.838l-1.667,1.667c-10.269,10.269-15.924,23.922-15.924,38.445
				C310.625,207.724,313.982,211.082,318.125,211.082z"/>
			<path d="M299.094,98.089c7.436,7.436,11.531,17.322,11.531,27.838s-4.094,20.402-11.531,27.838l-1.665,1.666
				c-10.27,10.268-15.925,23.921-15.925,38.444v9.708c0,4.142,3.357,7.5,7.5,7.5s7.5-3.358,7.5-7.5v-9.708
				c0-10.516,4.094-20.402,11.531-27.838l1.665-1.666c10.27-10.268,15.925-23.921,15.925-38.444
				c0-14.522-5.655-28.175-15.924-38.445l-15.394-15.394c-2.929-2.929-7.677-2.929-10.607,0c-2.929,2.928-2.929,7.677,0,10.606
				L299.094,98.089z"/>
			<path d="M497.44,341.912v-21.846c0-9.488-7.719-17.207-17.207-17.207h-15.199c0.192-1.955,0.292-3.922,0.292-5.894
				c0-20.847-11.102-40.465-28.973-51.198l-15.65-9.4c-3.954-2.374-7.316-5.71-9.72-9.648c-7.883-12.91-22.176-20.93-37.302-20.93
				h-2.393c-15.126,0-29.419,8.019-37.302,20.929c-2.405,3.938-5.766,7.274-9.72,9.649l-15.65,9.399
				c-3.203,1.923-6.183,4.136-8.926,6.586c-2.765-2.46-5.75-4.668-8.943-6.585l-15.65-9.4c-3.954-2.374-7.316-5.71-9.72-9.648
				c-7.883-12.91-22.176-20.93-37.302-20.93h-2.393c-13.633,0-26.573,6.53-34.769,17.268l4.077-118.228
				c0.004-0.086,0.005-0.172,0.005-0.258V26.914C194.995,12.074,182.922,0,168.081,0s-26.914,12.074-26.915,26.914v77.657
				c0,0.086,0.001,0.172,0.005,0.258l5.312,154.044c0.017,0.49,0.083,0.968,0.189,1.429c-2.116,2.728-3.997,5.631-5.615,8.676
				l-38.858-167.981c-0.019-0.083-0.04-0.166-0.062-0.248c-0.001-0.001-0.001-0.002-0.001-0.003c-0.001,0-0.001-0.001-0.001-0.002
				L82.037,25.736C78.195,11.401,63.408,2.867,49.074,6.705C34.74,10.546,26.202,25.333,30.043,39.668l20.1,75.011
				c0.022,0.083,0.046,0.166,0.071,0.248l58.458,191.508c-4.094,3.148-6.748,8.08-6.748,13.632v21.846
				c-8.233,1.28-14.561,8.396-14.561,16.982v47.83H62.825c-4.143,0-7.5,3.358-7.5,7.5c0,4.142,3.357,7.5,7.5,7.5h129.108
				c1.217,0,2.207,0.99,2.207,2.207v2.912c0,38.684-31.471,70.156-70.156,70.156H85.156C46.472,497,15,465.528,15,426.844v-2.912
				c0-1.217,0.99-2.207,2.207-2.207h15.041c4.143,0,7.5-3.358,7.5-7.5c0-4.142-3.357-7.5-7.5-7.5H17.207
				C7.719,406.725,0,414.444,0,423.932v2.912C0,473.799,38.201,512,85.156,512h38.828c41.062,0,75.428-29.214,83.408-67.949h277.694
				c14.841,0,26.914-12.074,26.914-26.914v-58.242C512,350.309,505.672,343.192,497.44,341.912z M316.343,258.628l15.65-9.4
				c6.021-3.615,11.139-8.695,14.8-14.691c2.548-4.173,6.118-7.562,10.269-9.934l-11.2,39.2c-1.138,3.983,1.169,8.134,5.151,9.272
				c3.979,1.137,8.133-1.168,9.272-5.151l12.202-42.71l12.202,42.71c0.941,3.294,3.944,5.441,7.208,5.441
				c0.682,0,1.376-0.094,2.064-0.291c3.982-1.138,6.289-5.289,5.151-9.272l-11.201-39.201c4.151,2.372,7.722,5.762,10.27,9.935
				c3.661,5.995,8.779,11.075,14.8,14.69l15.65,9.4c13.382,8.037,21.695,22.728,21.695,38.339c0,1.977-0.137,3.946-0.393,5.894
				H295.042c-0.256-1.948-0.398-3.919-0.398-5.894C294.644,281.354,302.957,266.664,316.343,258.628z M156.167,26.914
				c0-6.569,5.345-11.914,11.914-11.914c6.569,0,11.914,5.345,11.914,11.914v70.157h-23.828V26.914z M179.732,112.071
				l-4.354,126.268l-12.368,7.428c-0.653,0.393-1.294,0.8-1.929,1.216l-4.651-134.912H179.732z M170.734,258.627l15.65-9.4
				c6.02-3.616,11.138-8.696,14.802-14.689c2.547-4.173,6.118-7.562,10.269-9.934l-11.2,39.2c-1.138,3.983,1.169,8.134,5.151,9.272
				c3.979,1.137,8.133-1.168,9.272-5.151l12.202-42.71l12.202,42.71c0.941,3.294,3.944,5.441,7.208,5.441
				c0.682,0,1.376-0.094,2.064-0.291c3.982-1.138,6.289-5.289,5.151-9.272l-11.201-39.201c4.151,2.372,7.722,5.762,10.27,9.935
				c3.661,5.995,8.779,11.075,14.8,14.69l15.65,9.4c2.44,1.465,4.718,3.155,6.823,5.042c-6.523,9.722-10.203,21.304-10.203,33.297
				c0,1.969,0.099,3.938,0.291,5.894h-130.5c-0.256-1.948-0.396-3.917-0.396-5.894C149.039,281.355,157.352,266.664,170.734,258.627
				z M44.531,35.786c-1.699-6.346,2.08-12.891,8.426-14.591c6.344-1.701,12.892,2.079,14.592,8.424l18.157,67.766l-23.016,6.167
				L44.531,35.786z M66.827,117.973l22.507-6.031l44.165,190.917h-10.236L66.827,117.973z M496.999,358.895v58.242
				c0,6.569-5.345,11.914-11.914,11.914H209.084c0.019-0.736,0.056-1.467,0.056-2.207v-2.912c0-9.488-7.719-17.207-17.207-17.207
				h-89.57v-47.83c0-1.217,0.99-2.207,2.207-2.207h274.062c4.143,0,7.5-3.358,7.5-7.5c0-4.142-3.357-7.5-7.5-7.5H116.924v-21.621
				c0-1.217,0.99-2.207,2.207-2.207h361.101c1.217,0,2.207,0.99,2.207,2.207v21.621h-74.362c-4.143,0-7.5,3.358-7.5,7.5
				c0,4.142,3.357,7.5,7.5,7.5h86.716C496.01,356.688,497,357.678,496.999,358.895L496.999,358.895z"/>
		</g>
	</g>
</g>
<g>
</g>
<g>
</g>
<g>
</g>
<g>
</g>
<g>
</g>
<g>
</g>
<g>
</g>
<g>
</g>
<g>
</g>
<g>
</g>
<g>
</g>
<g>
</g>
<g>
</g>
<g>
</g>
<g>
</g>
</svg>
